<svg width="14" height="15" viewBox="0 0 14 15" fill="none" xmlns="http://www.w3.org/2000/svg">
<path d="M6.59638 1.39913C6.79613 1.12595 7.20387 1.12595 7.40362 1.39913L9.32199 4.02281C9.50713 4.27601 9.76698 4.4648 10.065 4.56263L13.1531 5.57636C13.4746 5.68191 13.6006 6.0697 13.4025 6.34408L11.5001 8.97933C11.3165 9.23365 11.2172 9.53912 11.2163 9.85278L11.2064 13.103C11.2054 13.4414 10.8755 13.6811 10.5534 13.5775L7.4592 12.5825C7.1606 12.4864 6.8394 12.4864 6.5408 12.5825L3.44664 13.5775C3.12447 13.6811 2.7946 13.4414 2.79357 13.103L2.78373 9.85278C2.78278 9.53912 2.68353 9.23364 2.49993 8.97933L0.597476 6.34408C0.399392 6.0697 0.525393 5.68191 0.846925 5.57636L3.935 4.56263C4.23302 4.4648 4.49287 4.27601 4.67801 4.02281L6.59638 1.39913Z" fill="#FFC32A" stroke="#FFC32A"/>
</svg>
